<svg id="Capa_1" enable-background="new 0 0 512 512" height="512" viewBox="0 0 512 512" width="512" xmlns="http://www.w3.org/2000/svg" xmlns:xlink="http://www.w3.org/1999/xlink"><linearGradient id="SVGID_1_" gradientUnits="userSpaceOnUse" x1="94.232" x2="460.787" y1="450.607" y2="13.764"><stop offset="0" stop-color="#fff3ee" stop-opacity="0"/><stop offset=".2938" stop-color="#ffeade" stop-opacity=".373"/><stop offset=".7874" stop-color="#ffd6bb"/></linearGradient><linearGradient id="SVGID_2_" gradientUnits="userSpaceOnUse" x1="256.646" x2="256.646" y1="431.435" y2="82.075"><stop offset="0" stop-color="#ff4d4d" stop-opacity=".4"/><stop offset=".1463" stop-color="#ff4d4d" stop-opacity=".342"/><stop offset="1" stop-color="#ff4d4d" stop-opacity="0"/></linearGradient><g><g><g><path d="m482.254 39.594c-26.384-52.211-95.823-48.813-134.988-12.906-19.172 17.577-53.231 5.609-76.228 7.71-33.79 3.087-51.848 37.129-85.154 43.604-326.262 63.429-125.807 559.718 164.183 403.863 68.536-36.835 35.447-127.894 48.696-190.742 18.058-85.657 131.816-155.897 83.491-251.529z" fill="url(#SVGID_1_)"/></g><g><path d="m44.045 409.879c-1.729 0-3.409-.896-4.335-2.501-1.381-2.392-.562-5.449 1.83-6.83l42.951-24.799c2.392-1.381 5.45-.562 6.83 1.83 1.381 2.392.562 5.449-1.83 6.83l-42.951 24.799c-.787.454-1.647.671-2.495.671z" fill="#6c6cff"/></g><g><path d="m256.646 90.302c-2.762 0-5-2.238-5-5v-49.597c0-2.762 2.238-5 5-5s5 2.238 5 5v49.597c0 2.761-2.239 5-5 5z" fill="#6c6cff"/></g><g><g><g><path d="m462.089 404.619c-.848 0-1.708-.216-2.495-.671l-41.661-24.053c-2.392-1.381-3.211-4.438-1.83-6.83 1.379-2.39 4.438-3.214 6.83-1.83l41.661 24.053c2.392 1.381 3.211 4.438 1.83 6.83-.926 1.604-2.607 2.501-4.335 2.501z" fill="#6c6cff"/></g></g><g><g><path d="m256.646 379.193v-94.486c0-1.786-.953-3.437-2.5-4.33l-81.827-47.243c-1.547-.893-3.453-.893-5 0l-81.827 47.243c-1.547.893-2.5 2.544-2.5 4.33v94.486c0 1.786.953 3.437 2.5 4.33l81.827 47.243c1.547.893 3.453.893 5 0l81.827-47.243c1.547-.893 2.5-2.544 2.5-4.33z" fill="#ff9d33"/><path d="m430.3 379.193v-94.486c0-1.786-.953-3.437-2.5-4.33l-81.827-47.243c-1.547-.893-3.453-.893-5 0l-81.827 47.243c-1.547.893-2.5 2.544-2.5 4.33v94.486c0 1.786.953 3.437 2.5 4.33l81.827 47.243c1.547.893 3.453.893 5 0l81.827-47.243c1.547-.893 2.5-2.544 2.5-4.33z" fill="#6c6cff"/><path d="m343.473 228.804v-94.486c0-1.786-.953-3.437-2.5-4.33l-81.827-47.243c-1.547-.893-3.453-.893-5 0l-81.827 47.243c-1.547.893-2.5 2.544-2.5 4.33v94.486c0 1.786.953 3.437 2.5 4.33l81.827 47.243c1.547.893 3.453.893 5 0l81.827-47.243c1.547-.893 2.5-2.544 2.5-4.33z" fill="#ff6c6c"/><g fill="#ffc599"><path d="m113.922 364.222v-64.544l55.896-32.272 55.898 32.272v64.544l-55.898 32.272z"/><path d="m287.576 364.222v-64.544l55.897-32.272 55.897 32.272v64.544l-55.897 32.272z"/><path d="m200.748 213.833v-64.544l55.898-32.273 55.897 32.273v64.544l-55.897 32.273z"/></g><g><g><path d="m256.646 251.261c-.89 0-1.78-.231-2.577-.691l-55.897-32.273c-2.466-1.424-3.31-4.576-1.887-7.042s4.575-3.314 7.042-1.887l53.32 30.785 53.32-30.785c2.465-1.427 5.619-.579 7.042 1.887 1.424 2.466.579 5.618-1.887 7.042l-55.897 32.273c-.799.461-1.689.691-2.579.691z" fill="#ffe8dc"/></g><g><path d="m312.538 154.445c-.874 0-1.761-.223-2.572-.692l-53.32-30.785-53.32 30.785c-2.467 1.425-5.619.579-7.042-1.887-1.424-2.466-.579-5.618 1.887-7.042l55.897-32.273c1.595-.92 3.56-.92 5.155 0l55.897 32.273c2.466 1.424 3.31 4.576 1.887 7.042-.954 1.655-2.687 2.579-4.469 2.579z" fill="#ffe8dc"/></g></g><path d="m169.818 396.494-55.896-32.272" fill="#ffc599"/><path d="m399.37 364.222-55.897 32.272-55.897-32.272" fill="#ffc599"/><g><path d="m169.818 401.649c-.89 0-1.78-.231-2.577-.691l-55.896-32.272c-2.466-1.424-3.31-4.576-1.887-7.042 1.423-2.465 4.574-3.314 7.042-1.887l53.319 30.784 53.32-30.784c2.465-1.427 5.618-.579 7.042 1.887s.579 5.618-1.887 7.042l-55.897 32.272c-.799.461-1.689.691-2.579.691z" fill="#ffe8dc"/></g><g><path d="m225.711 304.834c-.874 0-1.761-.223-2.572-.692l-53.32-30.784-53.319 30.784c-2.468 1.425-5.619.578-7.042-1.887-1.424-2.466-.579-5.618 1.887-7.042l55.896-32.272c1.595-.92 3.56-.92 5.155 0l55.897 32.272c2.466 1.424 3.31 4.576 1.887 7.042-.954 1.654-2.687 2.579-4.469 2.579z" fill="#6c6cff"/></g><g><path d="m343.473 401.649c-.89 0-1.78-.231-2.577-.691l-55.898-32.272c-2.466-1.424-3.31-4.576-1.887-7.042 1.422-2.465 4.575-3.314 7.042-1.887l53.32 30.784 53.319-30.784c2.466-1.427 5.619-.579 7.042 1.887 1.424 2.466.579 5.618-1.887 7.042l-55.896 32.272c-.798.461-1.688.691-2.578.691z" fill="#6c6cff"/></g><g><path d="m287.581 304.834c-1.782 0-3.515-.924-4.469-2.579-1.424-2.466-.579-5.618 1.887-7.042l55.898-32.272c1.595-.92 3.56-.92 5.155 0l55.896 32.272c2.466 1.424 3.31 4.576 1.887 7.042-1.423 2.464-4.576 3.311-7.042 1.887l-53.319-30.784-53.32 30.784c-.812.469-1.699.692-2.573.692z" fill="#6c6cff"/></g><g><path d="m225.711 304.834c-.874 0-1.761-.223-2.572-.692l-53.32-30.784-53.319 30.784c-2.468 1.425-5.619.578-7.042-1.887-1.424-2.466-.579-5.618 1.887-7.042l55.896-32.272c1.595-.92 3.56-.92 5.155 0l55.897 32.272c2.466 1.424 3.31 4.576 1.887 7.042-.954 1.654-2.687 2.579-4.469 2.579z" fill="#ffe8dc"/></g></g><g fill="#fff"><g><path d="m246.312 161.42h-5.332c-6.508 0-11.803 5.295-11.803 11.803v16.457c0 6.508 5.295 11.803 11.803 11.803h5.332c6.508 0 11.803-5.295 11.803-11.803v-16.457c0-6.508-5.295-11.803-11.803-11.803zm1.803 28.26c0 .994-.809 1.803-1.803 1.803h-5.332c-.994 0-1.803-.809-1.803-1.803v-16.457c0-.994.809-1.803 1.803-1.803h5.332c.994 0 1.803.809 1.803 1.803z"/><path d="m275.129 161.42h-5.444c-2.762 0-5 2.238-5 5s2.238 5 5 5h.444v25.062c0 2.762 2.238 5 5 5s5-2.238 5-5v-30.062c0-2.762-2.238-5-5-5z"/></g><g><path d="m155.146 311.919h-5.332c-6.508 0-11.803 5.294-11.803 11.802v16.457c0 6.508 5.295 11.803 11.803 11.803h5.332c6.508 0 11.802-5.295 11.802-11.803v-16.457c0-6.508-5.294-11.802-11.802-11.802zm1.802 28.259c0 .994-.809 1.803-1.802 1.803h-5.332c-.994 0-1.803-.809-1.803-1.803v-16.457c0-.993.809-1.802 1.803-1.802h5.332c.993 0 1.802.809 1.802 1.802z"/><path d="m196.625 341.54h-5.184c3.195-3.311 6.24-7.033 7.594-10.307 1.887-4.565 1.447-9.633-1.177-13.556-2.447-3.66-6.42-5.759-10.898-5.759-7.412 0-13.442 6.03-13.442 13.441 0 2.762 2.238 5 5 5s5-2.238 5-5c0-1.897 1.544-3.441 3.442-3.441 1.131 0 2.001.443 2.586 1.318.753 1.124.847 2.725.247 4.176-1.561 3.776-9.363 11.178-14.405 15.228-1.654 1.329-2.29 3.558-1.586 5.559s2.594 3.341 4.716 3.341h18.107c2.762 0 5-2.238 5-5s-2.238-5-5-5z"/></g><g><path d="m329.424 311.919h-5.332c-6.508 0-11.802 5.295-11.802 11.803v16.457c0 6.508 5.294 11.803 11.802 11.803h5.332c6.508 0 11.803-5.295 11.803-11.803v-16.457c0-6.508-5.295-11.803-11.803-11.803zm1.803 28.259c0 .994-.809 1.803-1.803 1.803h-5.332c-.993 0-1.802-.809-1.802-1.803v-16.457c0-.994.809-1.803 1.802-1.803h5.332c.994 0 1.803.809 1.803 1.803z"/><path d="m374.655 324.434c0-6.901-5.614-12.516-12.516-12.516h-9.395c-2.762 0-5 2.238-5 5s2.238 5 5 5h9.395c1.387 0 2.516 1.129 2.516 2.516s-1.129 2.516-2.516 2.516h-9.395c-2.762 0-5 2.238-5 5s2.238 5 5 5h9.395c1.387 0 2.516 1.129 2.516 2.516s-1.129 2.516-2.516 2.516h-9.395c-2.762 0-5 2.238-5 5s2.238 5 5 5h9.395c6.901 0 12.516-5.614 12.516-12.516 0-2.822-.95-5.42-2.531-7.516 1.581-2.096 2.531-4.694 2.531-7.516z"/></g></g><g><path d="m343.473 401.649c-.89 0-1.78-.231-2.577-.691l-55.898-32.272c-2.466-1.424-3.31-4.576-1.887-7.042 1.422-2.465 4.575-3.314 7.042-1.887l53.32 30.784 53.319-30.784c2.466-1.427 5.619-.579 7.042 1.887 1.424 2.466.579 5.618-1.887 7.042l-55.896 32.272c-.798.461-1.688.691-2.578.691z" fill="#ffe8dc"/></g><g><path d="m287.581 304.834c-1.782 0-3.515-.924-4.469-2.579-1.424-2.466-.579-5.618 1.887-7.042l55.898-32.272c1.595-.92 3.56-.92 5.155 0l55.896 32.272c2.466 1.424 3.31 4.576 1.887 7.042-1.423 2.464-4.576 3.311-7.042 1.887l-53.319-30.784-53.32 30.784c-.812.469-1.699.692-2.573.692z" fill="#ffe8dc"/></g><g><g><g><path d="m136.846 167.146h-18.583c-2.762 0-5-2.238-5-5s2.238-5 5-5h18.583c2.762 0 5 2.238 5 5s-2.239 5-5 5z" fill="#6c6cff"/></g><g><path d="m136.846 187.528h-58.583c-2.762 0-5-2.238-5-5s2.238-5 5-5h58.583c2.762 0 5 2.238 5 5s-2.239 5-5 5z" fill="#6c6cff"/></g><g><path d="m136.846 207.909h-58.583c-2.762 0-5-2.238-5-5s2.238-5 5-5h58.583c2.762 0 5 2.238 5 5s-2.239 5-5 5z" fill="#6c6cff"/></g></g></g></g><g><g><path d="m347.745 90.424c-2.762 0-5-2.238-5-5 0-3.492-2.842-6.333-6.334-6.333-2.762 0-5-2.238-5-5s2.238-5 5-5c3.492 0 6.334-2.842 6.334-6.334 0-2.762 2.238-5 5-5s5 2.238 5 5c0 3.492 2.841 6.334 6.333 6.334 2.762 0 5 2.238 5 5s-2.238 5-5 5c-3.492 0-6.333 2.841-6.333 6.333 0 2.762-2.238 5-5 5z" fill="#ffab66"/></g><g><path d="m448.162 262.439c-2.762 0-5-2.238-5-5 0-3.492-2.841-6.333-6.333-6.333-2.762 0-5-2.238-5-5s2.238-5 5-5c3.492 0 6.333-2.842 6.333-6.334 0-2.762 2.238-5 5-5s5 2.238 5 5c0 3.492 2.842 6.334 6.334 6.334 2.762 0 5 2.238 5 5s-2.238 5-5 5c-3.492 0-6.334 2.841-6.334 6.333 0 2.762-2.238 5-5 5z" fill="#ff6c6c"/></g><g><path d="m205.065 82.25c-2.762 0-5-2.238-5-5 0-3.492-2.841-6.333-6.333-6.333-2.762 0-5-2.238-5-5s2.238-5 5-5c3.492 0 6.333-2.842 6.333-6.334 0-2.762 2.238-5 5-5s5 2.238 5 5c0 3.492 2.841 6.334 6.333 6.334 2.762 0 5 2.238 5 5s-2.238 5-5 5c-3.492 0-6.333 2.841-6.333 6.333 0 2.762-2.238 5-5 5z" fill="#8383ff"/></g><g><path d="m225.716 469.344c-2.762 0-5-2.238-5-5 0-3.492-2.841-6.333-6.333-6.333-2.762 0-5-2.238-5-5s2.238-5 5-5c3.492 0 6.333-2.841 6.333-6.333 0-2.762 2.238-5 5-5s5 2.238 5 5c0 3.492 2.841 6.333 6.333 6.333 2.762 0 5 2.238 5 5s-2.238 5-5 5c-3.492 0-6.333 2.841-6.333 6.333 0 2.761-2.238 5-5 5z" fill="#ffab66"/></g><g><path d="m287.576 473.844c-1.279 0-2.56-.488-3.535-1.465l-5.465-5.464-5.465 5.464c-1.951 1.953-5.119 1.953-7.07 0-1.953-1.952-1.953-5.118 0-7.07l9-9c1.951-1.953 5.119-1.953 7.07 0l9 9c1.953 1.952 1.953 5.118 0 7.07-.975.976-2.256 1.465-3.535 1.465z" fill="#8383ff"/></g></g></g></g><path d="m427.8 280.377-81.827-47.243c-1.547-.893-3.453-.893-5 0 1.547-.893 2.5-2.544 2.5-4.33v-94.486c0-1.786-.953-3.437-2.5-4.33l-81.827-47.243c-1.547-.893-3.453-.893-5 0l-81.827 47.243c-1.547.893-2.5 2.544-2.5 4.33v94.486c0 1.786.953 3.437 2.5 4.33-1.547-.893-3.453-.893-5 0l-81.827 47.243c-1.547.893-2.5 2.544-2.5 4.33v94.486c0 1.786.953 3.437 2.5 4.33l81.827 47.243c1.547.893 3.453.893 5 0l81.827-47.243c1.547-.893 2.5-2.544 2.5-4.33 0 1.786.953 3.437 2.5 4.33l81.827 47.243c1.547.893 3.453.893 5 0l81.827-47.243c1.547-.893 2.5-2.544 2.5-4.33v-94.486c0-1.787-.953-3.437-2.5-4.33z" fill="url(#SVGID_2_)"/></g></svg>