<svg id="Capa_1" enable-background="new 0 0 512 512" height="512" viewBox="0 0 512 512" width="512" xmlns="http://www.w3.org/2000/svg" xmlns:xlink="http://www.w3.org/1999/xlink"><linearGradient id="SVGID_1_" gradientUnits="userSpaceOnUse" x1="145.061" x2="471.768" y1="482.976" y2="93.622"><stop offset="0" stop-color="#ffd9d9" stop-opacity="0"/><stop offset=".9981" stop-color="#ffb3b3"/></linearGradient><linearGradient id="SVGID_2_" gradientUnits="userSpaceOnUse" x1="256" x2="256" y1="486.442" y2="25.558"><stop offset="0" stop-color="#ff4d4d" stop-opacity=".4"/><stop offset=".1463" stop-color="#ff4d4d" stop-opacity=".342"/><stop offset="1" stop-color="#ff4d4d" stop-opacity="0"/></linearGradient><g><g><g><path d="m450.496 371.149c-26.332-88.911-118.23-178.575-54.903-275.384 12.114-18.519 10.795-49.506.723-62.602-63.291-82.292-203.076 2.56-202.087 102.088.651 65.445-47.727 106.413-90.363 148.775-226.824 194.646 421.372 353.548 346.63 87.123z" fill="url(#SVGID_1_)"/></g><g fill="#6c6cff"><path d="m165.402 189.102c-2.18 0-4.184-1.437-4.808-3.637-25.104-88.518-24.863-147.672.645-158.238 13.421-5.559 30.907 2.788 51.967 24.816 19.017 19.892 40 50.029 60.679 87.154 1.344 2.413.478 5.458-1.935 6.801-2.413 1.344-5.457.478-6.802-1.935-20.271-36.393-40.733-65.823-59.171-85.11-17.415-18.215-31.941-26.203-40.911-22.488-8.942 3.704-13.571 19.558-13.032 44.641.57 26.56 6.857 61.703 18.18 101.629.754 2.657-.789 5.421-3.446 6.174-.456.131-.915.193-1.366.193z"/><path d="m269.821 420.074c-1.604 0-3.178-.769-4.145-2.196-9.006-13.295-18.124-28.182-27.099-44.245-1.347-2.411-.485-5.457 1.926-6.804s5.457-.485 6.804 1.926c8.836 15.815 17.802 30.455 26.649 43.515 1.549 2.286.951 5.395-1.335 6.944-.859.581-1.835.86-2.8.86z"/><path d="m342.267 486.428c-8.466 0-18.225-4.4-29.139-13.158-2.153-1.728-2.498-4.875-.77-7.029 1.729-2.153 4.876-2.497 7.028-.77 8.052 6.46 19.365 13.454 27.547 10.063 8.971-3.716 13.597-19.647 13.026-44.859-.604-26.694-6.955-61.994-18.365-102.083-.757-2.656.784-5.422 3.439-6.178 2.658-.753 5.423.784 6.178 3.44 11.641 40.895 18.122 77.063 18.745 104.594.69 30.484-5.769 48.762-19.197 54.324-2.663 1.105-5.497 1.656-8.492 1.656z"/><path d="m346.432 189.688c-.453 0-.914-.062-1.371-.192-2.656-.755-4.196-3.521-3.441-6.177 11.399-40.068 17.742-75.347 18.342-102.022.566-25.195-4.061-41.116-13.027-44.83-8.977-3.719-23.498 4.273-40.912 22.487-18.438 19.287-38.899 48.717-59.171 85.11-1.343 2.413-4.389 3.28-6.801 1.935-2.413-1.344-3.279-4.389-1.935-6.801 20.679-37.124 41.662-67.262 60.68-87.154 21.057-22.027 38.545-30.377 51.966-24.816 13.424 5.561 19.884 23.827 19.198 54.293-.618 27.514-7.092 63.661-18.72 104.534-.627 2.198-2.63 3.633-4.808 3.633z"/><path d="m169.786 486.442c-3.01 0-5.859-.556-8.547-1.669-13.424-5.561-19.883-23.827-19.198-54.293.618-27.513 7.092-63.661 18.72-104.534.756-2.656 3.521-4.198 6.177-3.441 2.656.755 4.197 3.521 3.441 6.177-11.399 40.068-17.741 75.347-18.341 102.022-.566 25.195 4.061 41.116 13.028 44.83 8.964 3.715 23.496-4.271 40.911-22.487 18.438-19.287 38.9-48.717 59.171-85.11 1.344-2.412 4.387-3.28 6.802-1.935 2.412 1.344 3.278 4.389 1.935 6.801-20.68 37.125-41.662 67.262-60.679 87.154-16.842 17.616-31.4 26.484-43.42 26.485z"/><path d="m77.836 370.057c-27.589 0-45.283-6.436-50.61-19.295-10.517-25.39 30.814-67.207 110.561-111.859 2.41-1.349 5.456-.49 6.806 1.92 1.349 2.41.489 5.457-1.92 6.806-35.988 20.151-65.063 40.462-84.079 58.739-17.957 17.259-25.816 31.666-22.128 40.567 3.695 8.921 19.497 13.555 44.479 13.035 26.46-.546 61.487-6.785 101.293-18.042 2.657-.754 5.421.793 6.172 3.45.752 2.657-.793 5.42-3.45 6.172-43.64 12.341-80.121 18.507-107.124 18.507z"/><path d="m434.163 370.057c-27.003 0-63.478-6.164-107.122-18.507-2.657-.752-4.202-3.515-3.451-6.172.752-2.658 3.522-4.202 6.172-3.451 39.807 11.258 74.833 17.497 101.293 18.043 24.995.516 40.785-4.113 44.48-13.035 3.714-8.967-4.272-23.497-22.488-40.911-19.287-18.439-48.717-38.9-85.109-59.171-2.413-1.344-3.279-4.389-1.936-6.801 1.344-2.412 4.388-3.28 6.802-1.935 37.124 20.679 67.262 41.662 87.153 60.679 22.027 21.059 30.377 38.542 24.816 51.967-5.326 12.856-23.027 19.294-50.61 19.294z"/><path d="m141.625 274.518c-.824 0-1.658-.204-2.429-.633-37.125-20.68-67.262-41.662-87.154-60.679-22.027-21.059-30.376-38.543-24.816-51.967 10.549-25.467 69.582-25.743 157.911-.738 2.657.752 4.201 3.516 3.449 6.173s-3.518 4.201-6.173 3.449c-39.849-11.281-74.917-17.537-101.412-18.091-25.018-.524-40.838 4.105-44.536 13.034-3.715 8.967 4.271 23.497 22.487 40.911 19.287 18.438 48.717 38.9 85.11 59.171 2.413 1.344 3.279 4.389 1.935 6.801-.914 1.643-2.617 2.569-4.372 2.569z"/></g><g><path d="m371.026 274.154c-1.754 0-3.455-.924-4.37-2.563-1.347-2.411-.483-5.457 1.928-6.803 36.204-20.215 65.469-40.607 84.63-58.971 18.096-17.342 26.022-31.814 22.321-40.751-3.689-8.906-19.445-13.534-44.362-13.038-26.388.528-61.329 6.732-101.047 17.942-2.653.748-5.42-.796-6.17-3.454-.751-2.658.796-5.42 3.453-6.17 88.016-24.842 146.842-24.509 157.364.892 10.559 25.491-31.055 67.465-111.314 112.28-.772.432-1.609.636-2.433.636z" fill="#6c6cff"/></g><path d="m459.957 298.794c-14.158-13.536-33.512-28.068-56.876-42.777 8.112-5.09 15.674-10.116 22.675-15.06 3.401 2.674 7.68 4.283 12.342 4.283 11.046 0 20-8.954 20-20 0-3.02-.689-5.873-1.888-8.441 24.141-22.061 34.443-41.367 28.563-55.561-9.165-22.123-54.975-25.227-124.794-9.248 6.119-26.919 9.54-50.889 9.979-70.47.686-30.466-5.774-48.733-19.198-54.293-11.348-4.702-25.605.544-42.467 15.592-2.968-1.745-6.415-2.762-10.107-2.762-11.046 0-20 8.954-20 20 0 4.347 1.402 8.358 3.757 11.639-8.47 10.829-17.174 23.321-25.944 37.252-14.715-23.377-29.253-42.74-42.794-56.904-21.06-22.028-38.545-30.375-51.967-24.816-22.139 9.17-25.24 54.948-9.26 124.752-8.677-1.986-16.981-3.675-24.891-5.072-.046-11.006-8.979-19.915-19.996-19.915-9.393 0-17.252 6.484-19.4 15.215-33.222-1.64-54.529 4.701-60.465 19.032-5.561 13.424 2.789 30.908 24.816 51.967 14.159 13.536 33.513 28.068 56.879 42.778-15.953 10.012-29.796 19.782-41.373 29.149-3.063-1.906-6.666-3.025-10.539-3.025-11.046 0-20 8.954-20 20 0 3.61.97 6.987 2.643 9.911-12.297 15.064-16.754 28.295-12.426 38.743 5.327 12.859 23.021 19.295 50.61 19.295 19.89 0 44.938-3.357 74.185-10.052-6.12 26.921-9.541 50.893-9.981 70.475-.685 30.466 5.774 48.733 19.198 54.293 2.688 1.113 5.537 1.669 8.547 1.669 12.021-.001 26.578-8.869 43.419-26.485 13.542-14.166 28.082-33.53 42.798-56.91 3.231 5.131 6.459 10.086 9.673 14.831.609.899 1.46 1.536 2.407 1.885-3.578 3.614-5.791 8.582-5.791 14.069 0 11.046 8.954 20 20 20s20-8.954 20-20-8.954-20-20-20c-2.654 0-5.181.528-7.498 1.467.048-1.04-.21-2.101-.839-3.029-4.014-5.925-8.052-12.191-12.092-18.729 3.828-6.34 7.661-12.941 11.485-19.78 3.147-1.282 5.526-4.126 6.087-7.657l3.588-22.585c5.486-1.692 10.75-3.889 15.743-6.531l18.516 13.439c2.895 2.101 6.589 2.43 9.722 1.109.013.004.024.011.037.015 7.587 2.146 14.942 4.092 22.083 5.864 6.671 28.209 10.382 53.174 10.837 73.262.57 25.212-4.056 41.143-13.026 44.859-8.182 3.39-19.495-3.603-27.547-10.063-2.152-1.727-5.3-1.383-7.028.77-1.729 2.154-1.384 5.301.77 7.029 10.914 8.758 20.673 13.158 29.139 13.158 2.995 0 5.829-.551 8.493-1.655 13.429-5.562 19.888-23.839 19.197-54.324-.443-19.578-3.863-43.539-9.98-70.445 13.084 2.995 25.32 5.317 36.636 6.974.99 10.12 9.52 18.029 19.901 18.029 9.303 0 17.099-6.361 19.335-14.963 26.614-.26 43.707-6.69 48.924-19.283 5.56-13.427-2.79-30.911-24.817-51.97zm-28.784-146.766c24.917-.497 40.673 4.132 44.362 13.038 3.701 8.937-4.226 23.409-22.321 40.751-1.109 1.063-2.263 2.134-3.439 3.21-3.288-2.372-7.313-3.786-11.677-3.786-11.046 0-20 8.954-20 20 0 2.734.552 5.339 1.545 7.713-8.017 5.666-16.738 11.413-26.093 17.189-6.343-3.831-12.948-7.666-19.791-11.491-1.282-3.147-4.126-5.526-7.657-6.087l-22.584-3.588c-1.692-5.487-3.889-10.751-6.531-15.744l13.439-18.515c2.102-2.895 2.43-6.59 1.109-9.723 2.133-7.54 4.091-14.919 5.867-22.109 28.454-6.729 53.614-10.454 73.771-10.858zm-47.309 103.971c-3.063 1.815-6.184 3.631-9.364 5.446v-10.893c3.18 1.816 6.301 3.632 9.364 5.447zm-47.918-87.637c3.527-.963 7.013-1.885 10.457-2.766-.883 3.45-1.794 6.93-2.76 10.464zm-79.946-40.227c1.815 3.064 3.631 6.185 5.447 9.365h-10.894c1.816-3.181 3.632-6.301 5.447-9.365zm-90.934-91.67c8.97-3.715 23.497 4.272 40.911 22.488 13.889 14.528 28.927 34.815 44.166 59.495-3.831 6.344-7.666 12.948-11.492 19.792-3.147 1.282-5.526 4.126-6.087 7.657l-3.588 22.582c-5.487 1.692-10.752 3.89-15.745 6.532l-18.514-13.438c-2.893-2.1-6.584-2.429-9.716-1.112-7.597-2.149-14.973-4.107-22.124-5.882-6.695-28.312-10.412-53.358-10.844-73.474-.538-25.082 4.09-40.936 13.033-44.64zm10.99 131.895-7.697 7.697c-.964-3.531-1.88-7.013-2.762-10.461 3.446.882 6.929 1.8 10.459 2.764zm-117.103 37.617c-18.216-17.415-26.202-31.944-22.487-40.911 3.698-8.928 19.519-13.558 44.536-13.034 2.212.046 4.494.139 6.824.265 2.327 8.467 10.06 14.695 19.266 14.695 7.526 0 14.073-4.161 17.487-10.304 9.498 1.647 19.525 3.713 30.002 6.191 1.775 7.149 3.734 14.525 5.883 22.12-1.319 3.132-.99 6.824 1.111 9.718l13.439 18.516c-2.642 4.993-4.839 10.256-6.531 15.743l-22.585 3.588c-3.557.565-6.417 2.973-7.686 6.154-.141.063-.287.107-.425.184-6.729 3.768-13.177 7.514-19.351 11.234-24.675-15.237-44.957-30.272-59.483-44.159zm117.102 137.663c-3.529.964-7.013 1.883-10.458 2.765.883-3.45 1.794-6.93 2.759-10.464zm-38.555-93.084v10.891c-3.18-1.815-6.3-3.631-9.363-5.446 3.062-1.815 6.184-3.63 9.363-5.445zm-56.555 109.413c-24.983.52-40.785-4.114-44.479-13.035-2.729-6.587.872-16.191 10.201-27.732 3.021 1.832 6.552 2.906 10.343 2.906 11.046 0 20-8.954 20-20 0-3.502-.905-6.79-2.486-9.652 12.31-9.902 27.092-20.201 43.927-30.597 6.343 3.83 12.947 7.665 19.79 11.49 1.282 3.147 4.126 5.526 7.657 6.087l22.583 3.588c1.692 5.487 3.89 10.751 6.532 15.744l-13.439 18.515c-2.102 2.895-2.43 6.59-1.108 9.723-2.133 7.541-4.091 14.919-5.867 22.11-28.398 6.715-53.513 10.438-73.654 10.853zm125.032 93.078c-17.415 18.216-31.947 26.202-40.911 22.487-8.967-3.714-13.594-19.635-13.028-44.83.452-20.092 4.164-45.068 10.839-73.291 7.142-1.772 14.497-3.719 22.084-5.865.013-.004.023-.011.036-.014 3.132 1.32 6.826.992 9.721-1.109l18.515-13.439c4.993 2.642 10.257 4.84 15.744 6.532l3.588 22.584c.561 3.531 2.939 6.374 6.085 7.656 3.814 6.823 7.654 13.419 11.5 19.785-15.243 24.684-30.282 44.974-44.173 59.504zm50.028-69.19c-1.82-3.07-3.638-6.181-5.452-9.357h10.894c-1.814 3.178-3.629 6.296-5.442 9.357zm-.011-79.986c-26.432 0-47.866-21.433-47.866-47.866 0-26.444 21.433-47.877 47.866-47.877 26.444 0 47.877 21.433 47.877 47.877.001 26.433-21.432 47.866-47.877 47.866zm71.061-143.385c-3.143-1.346-6.863-1.024-9.773 1.088l-18.515 13.439c-4.993-2.642-10.257-4.839-15.744-6.532l-3.588-22.584c-.561-3.532-2.94-6.376-6.087-7.657-3.826-6.844-7.661-13.449-11.492-19.792 9.404-15.23 18.73-28.78 27.758-40.343 2.601 1.238 5.5 1.951 8.572 1.951 11.046 0 20-8.954 20-20 0-3.716-1.032-7.184-2.798-10.165 13.239-11.71 24.233-16.455 31.546-13.425 8.967 3.714 13.594 19.635 13.027 44.83-.452 20.091-4.164 45.065-10.838 73.286-7.023 1.743-14.262 3.661-21.715 5.765-.124.035-.233.095-.353.139zm8.89 183.153 7.699-7.699c.965 3.534 1.876 7.013 2.759 10.464-3.446-.882-6.93-1.801-10.458-2.765zm139.59 3.295c-3.453 8.336-17.465 12.923-39.677 13.069-2.225-8.619-10.029-14.996-19.343-14.996-8.207 0-15.25 4.947-18.333 12.018-12.585-1.827-26.249-4.474-40.781-7.911-1.776-7.19-3.734-14.569-5.867-22.109 1.322-3.133.994-6.828-1.108-9.724l-13.438-18.514c2.643-4.993 4.84-10.258 6.532-15.745l22.582-3.588c3.531-.561 6.375-2.939 7.657-6.085 6.893-3.853 13.494-7.684 19.807-11.486 24.674 15.236 44.955 30.271 59.481 44.158 18.215 17.417 26.202 31.946 22.488 40.913z" fill="url(#SVGID_2_)"/><g><path d="m366.102 232.564-22.584-3.588c-1.692-5.487-3.89-10.751-6.532-15.744l13.439-18.515c2.877-3.964 2.445-9.431-1.018-12.894l-19.231-19.231c-3.463-3.463-8.931-3.895-12.894-1.018l-18.515 13.439c-4.993-2.642-10.257-4.839-15.744-6.532l-3.588-22.584c-.768-4.837-4.939-8.398-9.837-8.398h-27.197c-4.898 0-9.069 3.561-9.837 8.398l-3.588 22.582c-5.487 1.692-10.752 3.89-15.745 6.532l-18.514-13.438c-3.964-2.877-9.431-2.445-12.894 1.018l-19.231 19.231c-3.463 3.463-3.895 8.93-1.018 12.894l13.439 18.516c-2.642 4.993-4.839 10.256-6.531 15.743l-22.585 3.588c-4.837.768-8.398 4.94-8.398 9.837v27.197c0 4.898 3.561 9.069 8.398 9.837l22.583 3.588c1.692 5.487 3.89 10.751 6.532 15.744l-13.439 18.515c-2.877 3.964-2.445 9.431 1.018 12.894l19.231 19.231c3.463 3.463 8.93 3.895 12.894 1.018l18.515-13.439c4.993 2.642 10.257 4.84 15.744 6.532l3.588 22.584c.768 4.837 4.939 8.398 9.837 8.398h27.197c4.898 0 9.069-3.561 9.837-8.398l3.588-22.585c5.486-1.692 10.75-3.889 15.743-6.531l18.516 13.439c3.964 2.877 9.431 2.445 12.894-1.018l19.231-19.231c3.463-3.463 3.895-8.93 1.018-12.894l-13.438-18.514c2.642-4.993 4.84-10.258 6.532-15.745l22.582-3.588c4.837-.768 8.398-4.939 8.398-9.837v-27.197c.002-4.896-3.559-9.067-8.396-9.836zm-62.23 23.441c0 26.433-21.433 47.865-47.877 47.865-26.432 0-47.865-21.433-47.865-47.865 0-26.444 21.433-47.877 47.865-47.877 26.444 0 47.877 21.433 47.877 47.877z" fill="#9494ff"/><path d="m253.455 351.59-3.989-25.109c2.151.198 4.328.299 6.528.299 2.204 0 4.386-.101 6.539-.299l-3.989 25.109zm47.735-41.153c3.357-2.792 6.456-5.89 9.248-9.247l14.954 20.603-3.598 3.598zm-114.582 11.356 14.953-20.601c2.792 3.357 5.89 6.455 9.247 9.246l-20.602 14.953zm-26.199-63.248v-5.089l25.109-3.989c-.198 2.153-.299 4.335-.299 6.539 0 2.201.101 4.378.299 6.528zm166.073 3.988c.198-2.15.299-4.327.299-6.527 0-2.204-.101-4.385-.3-6.538l25.109 3.989v5.088zm-16.046-51.722c-2.792-3.357-5.89-6.455-9.247-9.247l20.604-14.955 3.598 3.598zm-123.828-20.604 3.599-3.599 20.603 14.954c-3.357 2.792-6.455 5.89-9.247 9.248zm75.925-4.689c-2.153-.198-4.335-.3-6.539-.3-2.201 0-4.377.101-6.527.299l3.989-25.107h5.088z" fill="#b3b3ff"/></g><circle cx="298.186" cy="60.056" fill="#ff6c6c" r="20"/><circle cx="416.515" cy="365.008" fill="#ff6c6c" r="20"/><circle cx="282.293" cy="433.831" fill="#ffab66" r="20"/><circle cx="57.009" cy="302.108" fill="#ffab66" r="20"/><circle cx="107.091" cy="146.992" fill="#8383ff" r="20"/><circle cx="438.098" cy="225.241" fill="#8383ff" r="20"/><path d="m87.092 430.165c-2.761 0-5-2.239-5-5 0-3.492-2.841-6.333-6.333-6.333-2.761 0-5-2.239-5-5s2.239-5 5-5c3.492 0 6.333-2.841 6.333-6.333 0-2.761 2.239-5 5-5s5 2.239 5 5c0 3.492 2.841 6.333 6.333 6.333 2.761 0 5 2.239 5 5s-2.239 5-5 5c-3.492 0-6.333 2.841-6.333 6.333 0 2.761-2.239 5-5 5z" fill="#ffab66"/><path d="m438.625 80.156c-2.762 0-5-2.239-5-5 0-3.492-2.841-6.333-6.333-6.333-2.762 0-5-2.239-5-5s2.238-5 5-5c3.492 0 6.333-2.841 6.333-6.333 0-2.761 2.238-5 5-5s5 2.239 5 5c0 3.492 2.841 6.333 6.333 6.333 2.762 0 5 2.239 5 5s-2.238 5-5 5c-3.492 0-6.333 2.841-6.333 6.333 0 2.761-2.238 5-5 5z" fill="#ff6c6c"/><path d="m106.785 96.39c-2.761 0-5-2.239-5-5 0-3.492-2.841-6.333-6.333-6.333-2.761 0-5-2.239-5-5s2.239-5 5-5c3.492 0 6.333-2.841 6.333-6.333 0-2.761 2.239-5 5-5s5 2.239 5 5c0 3.492 2.841 6.333 6.333 6.333 2.761 0 5 2.239 5 5s-2.239 5-5 5c-3.492 0-6.333 2.841-6.333 6.333 0 2.761-2.239 5-5 5z" fill="#8383ff"/><path d="m425.514 120.53c-1.279 0-2.56-.488-3.535-1.464l-5.465-5.464-5.465 5.464c-1.951 1.952-5.119 1.952-7.07 0-1.953-1.953-1.953-5.119 0-7.071l9-9c1.951-1.952 5.119-1.952 7.07 0l9 9c1.953 1.953 1.953 5.118 0 7.071-.975.976-2.255 1.464-3.535 1.464z" fill="#8383ff"/><path d="m425.514 455.437c-1.279 0-2.56-.488-3.535-1.464l-5.465-5.464-5.465 5.464c-1.951 1.952-5.119 1.952-7.07 0-1.953-1.953-1.953-5.119 0-7.071l9-9c1.951-1.952 5.119-1.952 7.07 0l9 9c1.953 1.953 1.953 5.119 0 7.071-.975.976-2.255 1.464-3.535 1.464z" fill="#8383ff"/></g></g></svg>