<svg id="Capa_1" enable-background="new 0 0 512 512" height="512" viewBox="0 0 512 512" width="512" xmlns="http://www.w3.org/2000/svg" xmlns:xlink="http://www.w3.org/1999/xlink"><linearGradient id="SVGID_1_" gradientUnits="userSpaceOnUse" x1="94.232" x2="460.787" y1="450.607" y2="13.764"><stop offset="0" stop-color="#ffd9d9" stop-opacity="0"/><stop offset=".9981" stop-color="#ffb3b3"/></linearGradient><linearGradient id="SVGID_2_" gradientUnits="userSpaceOnUse" x1="270.443" x2="270.443" y1="465.365" y2="36.235"><stop offset="0" stop-color="#ff4d4d" stop-opacity=".4"/><stop offset=".1463" stop-color="#ff4d4d" stop-opacity=".342"/><stop offset="1" stop-color="#ff4d4d" stop-opacity="0"/></linearGradient><g><g><g><path d="m482.254 39.594c-26.384-52.211-95.823-48.813-134.988-12.906-19.172 17.577-53.231 5.609-76.228 7.71-33.79 3.087-51.848 37.129-85.154 43.604-326.262 63.429-125.807 559.718 164.183 403.863 68.536-36.835 35.447-127.894 48.696-190.742 18.058-85.657 131.816-155.897 83.491-251.529z" fill="url(#SVGID_1_)"/></g><g><g><g><g><g><g><path d="m178.413 408.583-47.138 20.684c-1.28.562-2.738.562-4.018 0l-47.138-20.684c-1.09-.478-1.795-1.556-1.795-2.747v-345.748h101.884v345.748c-.001 1.191-.705 2.269-1.795 2.747z" fill="#6c6cff"/></g><path d="m180.21 60.09v345.75c0 1.19-.71 2.26-1.8 2.74l-47.14 20.69c-.64.28-1.31.42-2 .42v-369.6z" fill="#8383ff"/><g fill="#b3b3ff"><path d="m180.21 334.78v35.53c0 1.19-.71 2.26-1.8 2.74l-47.14 20.69c-.64.28-1.31.42-2 .42v-35.53c.69 0 1.36-.14 2-.42l47.14-20.69c1.09-.48 1.8-1.55 1.8-2.74z"/><path d="m180.21 263.122v35.53c0 1.19-.71 2.26-1.8 2.74l-47.14 20.69c-.64.28-1.31.42-2 .42v-35.53c.69 0 1.36-.14 2-.42l47.14-20.69c1.09-.48 1.8-1.55 1.8-2.74z"/><path d="m180.21 191.464v35.53c0 1.19-.71 2.26-1.8 2.74l-47.14 20.69c-.64.28-1.31.42-2 .42v-35.53c.69 0 1.36-.14 2-.42l47.14-20.69c1.09-.48 1.8-1.55 1.8-2.74z"/><path d="m180.21 119.806v35.53c0 1.19-.71 2.26-1.8 2.74l-47.14 20.69c-.64.28-1.31.42-2 .42v-35.53c.69 0 1.36-.14 2-.42l47.14-20.69c1.09-.48 1.8-1.55 1.8-2.74z"/></g><g><path d="m127.256 36.657-47.138 20.684c-2.393 1.05-2.393 4.444 0 5.494l47.138 20.684c1.28.562 2.738.562 4.018 0l47.138-20.684c2.393-1.05 2.393-4.444 0-5.494l-47.138-20.684c-1.28-.562-2.737-.562-4.018 0z" fill="#9494ff"/></g></g></g><g><g><g><path d="m280.296 408.583-47.138 20.684c-1.28.562-2.738.562-4.018 0l-47.138-20.684c-1.09-.478-1.795-1.556-1.795-2.747v-165.748h101.884v165.748c0 1.191-.704 2.269-1.795 2.747z" fill="#ff9d33"/></g><path d="m282.094 240.09v165.75c0 1.19-.71 2.26-1.8 2.74l-47.14 20.69c-.64.28-1.31.42-2 .42v-189.6z" fill="#ffab66"/><path d="m282.094 263.122v35.53c0 1.19-.71 2.26-1.8 2.74l-47.14 20.69c-.64.28-1.31.42-2 .42v-35.53c.69 0 1.36-.14 2-.42l47.14-20.69c1.09-.48 1.8-1.55 1.8-2.74z" fill="#ffc599"/><g><path d="m282.094 334.78v35.53c0 1.19-.71 2.26-1.8 2.74l-47.14 20.69c-.64.28-1.31.42-2 .42v-35.53c.69 0 1.36-.14 2-.42l47.14-20.69c1.09-.48 1.8-1.55 1.8-2.74z" fill="#ffc599"/></g><g><path d="m229.14 216.657-47.138 20.684c-2.393 1.05-2.393 4.444 0 5.494l47.138 20.684c1.28.562 2.738.562 4.018 0l47.138-20.684c2.393-1.05 2.393-4.444 0-5.494l-47.138-20.684c-1.28-.562-2.737-.562-4.018 0z" fill="#ffc599"/></g></g></g><g><g><g><path d="m382.18 408.583-47.138 20.684c-1.28.562-2.738.562-4.018 0l-47.138-20.684c-1.09-.478-1.795-1.556-1.795-2.747v-245.748h101.884v245.748c0 1.191-.704 2.269-1.795 2.747z" fill="#ff6c6c"/></g><path d="m383.977 160.09v245.75c0 1.19-.71 2.26-1.8 2.74l-47.14 20.69c-.64.28-1.31.42-2 .42v-269.6z" fill="#ff9494"/><g fill="#ffb3b3"><path d="m383.977 334.78v35.53c0 1.19-.71 2.26-1.8 2.74l-47.14 20.69c-.64.28-1.31.42-2 .42v-35.53c.69 0 1.36-.14 2-.42l47.14-20.69c1.09-.48 1.8-1.55 1.8-2.74z"/><path d="m383.977 263.122v35.53c0 1.19-.71 2.26-1.8 2.74l-47.14 20.69c-.64.28-1.31.42-2 .42v-35.53c.69 0 1.36-.14 2-.42l47.14-20.69c1.09-.48 1.8-1.55 1.8-2.74z"/><path d="m383.977 191.464v35.53c0 1.19-.71 2.26-1.8 2.74l-47.14 20.69c-.64.28-1.31.42-2 .42v-35.53c.69 0 1.36-.14 2-.42l47.14-20.69c1.09-.48 1.8-1.55 1.8-2.74z"/></g><g><path d="m331.024 136.657-47.138 20.684c-2.393 1.05-2.393 4.444 0 5.494l47.138 20.684c1.28.562 2.738.562 4.018 0l47.138-20.684c2.393-1.05 2.393-4.444 0-5.494l-47.138-20.684c-1.281-.562-2.738-.562-4.018 0z" fill="#ffb3b3"/></g></g></g></g><g><g><path d="m462.563 301.885v153.48c0 5.53-4.48 10-10 10h-109.53c-5.52 0-10-4.47-10-10v-153.48c0-5.53 4.48-10 10-10h109.53c5.52 0 10 4.47 10 10z" fill="#fff"/></g><g><g><g><path d="m387.089 332.376h-18.583c-2.761 0-5-2.239-5-5s2.239-5 5-5h18.583c2.761 0 5 2.239 5 5s-2.239 5-5 5z" fill="#ff6c6c"/></g><g><g><path d="m427.089 352.757h-58.583c-2.761 0-5-2.239-5-5s2.239-5 5-5h58.583c2.761 0 5 2.239 5 5s-2.239 5-5 5z" fill="#ffab66"/></g><g><path d="m427.089 373.139h-58.583c-2.761 0-5-2.239-5-5s2.239-5 5-5h58.583c2.761 0 5 2.239 5 5s-2.239 5-5 5z" fill="#ffab66"/></g></g></g><g><path d="m427.089 414.309h-40.583c-2.761 0-5-2.239-5-5s2.239-5 5-5h40.583c2.761 0 5 2.239 5 5s-2.239 5-5 5z" fill="#ffab66"/><g fill="#ff6c6c"><circle cx="368.506" cy="409.309" r="5"/><circle cx="368.506" cy="429.69" r="5"/></g></g><g><path d="m427.089 434.69h-40.583c-2.761 0-5-2.239-5-5s2.239-5 5-5h40.583c2.761 0 5 2.239 5 5s-2.239 5-5 5z" fill="#ffab66"/></g></g></g><g><g><g><path d="m225.583 88.953h-18.583c-2.762 0-5-2.238-5-5s2.238-5 5-5h18.583c2.762 0 5 2.238 5 5s-2.238 5-5 5z" fill="#ff4d4d"/></g><g><path d="m265.583 109.335h-58.583c-2.762 0-5-2.238-5-5s2.238-5 5-5h58.583c2.762 0 5 2.238 5 5s-2.238 5-5 5z" fill="#ff4d4d"/></g><g><path d="m265.583 129.717h-58.583c-2.762 0-5-2.238-5-5s2.238-5 5-5h58.583c2.762 0 5 2.238 5 5s-2.238 5-5 5z" fill="#ff4d4d"/></g></g></g></g><g><g><path d="m319.484 114.76c-2.762 0-5-2.238-5-5 0-3.492-2.842-6.334-6.334-6.334-2.762 0-5-2.238-5-5s2.238-5 5-5c3.492 0 6.334-2.841 6.334-6.333 0-2.762 2.238-5 5-5s5 2.238 5 5c0 3.492 2.841 6.333 6.333 6.333 2.762 0 5 2.238 5 5s-2.238 5-5 5c-3.492 0-6.333 2.842-6.333 6.334 0 2.761-2.238 5-5 5z" fill="#8383ff"/></g><g><path d="m115.088 488.531c-2.762 0-5-2.238-5-5 0-3.492-2.841-6.333-6.333-6.333-2.762 0-5-2.238-5-5s2.238-5 5-5c3.492 0 6.333-2.841 6.333-6.333 0-2.762 2.238-5 5-5s5 2.238 5 5c0 3.492 2.841 6.333 6.333 6.333 2.762 0 5 2.238 5 5s-2.238 5-5 5c-3.492 0-6.333 2.841-6.333 6.333 0 2.762-2.238 5-5 5z" fill="#ffab66"/></g><g><path d="m444.291 270.725c-2.762 0-5-2.238-5-5 0-3.492-2.841-6.333-6.333-6.333-2.762 0-5-2.238-5-5s2.238-5 5-5c3.492 0 6.333-2.842 6.333-6.334 0-2.762 2.238-5 5-5s5 2.238 5 5c0 3.492 2.842 6.334 6.334 6.334 2.762 0 5 2.238 5 5s-2.238 5-5 5c-3.492 0-6.334 2.841-6.334 6.333 0 2.761-2.238 5-5 5z" fill="#ff6c6c"/></g><g><path d="m76.701 460.02c-1.279 0-2.56-.488-3.535-1.465l-5.465-5.464-5.465 5.464c-1.951 1.953-5.119 1.953-7.07 0-1.953-1.952-1.953-5.118 0-7.07l9-9c1.951-1.953 5.119-1.953 7.07 0l9 9c1.953 1.952 1.953 5.118 0 7.07-.975.976-2.256 1.465-3.535 1.465z" fill="#8383ff"/></g><g><path d="m382.506 79.58c-1.279 0-2.56-.488-3.535-1.465l-5.465-5.464-5.465 5.464c-1.951 1.953-5.119 1.953-7.07 0-1.953-1.952-1.953-5.118 0-7.07l9-9c1.951-1.953 5.119-1.953 7.07 0l9 9c1.953 1.952 1.953 5.118 0 7.07-.976.977-2.256 1.465-3.535 1.465z" fill="#ff6c6c"/></g></g></g></g><g><path d="m452.563 291.885h-68.585v-131.795h-.003v-.003c0-1.111-.598-2.222-1.794-2.747l-47.138-20.684c-1.281-.562-2.738-.562-4.018 0l-47.138 20.684c-1.196.525-1.794 1.636-1.794 2.747v80c0-1.111-.598-2.222-1.795-2.747l-47.138-20.684c-1.281-.562-2.738-.562-4.018 0l-47.138 20.684c-1.19.522-1.785 1.624-1.792 2.728v-84.733-35.53-59.715h-.003v-.003c0-1.111-.598-2.222-1.795-2.747l-47.138-20.684c-1.28-.562-2.738-.562-4.018 0l-47.14 20.685c-1.196.525-1.794 1.636-1.794 2.747v345.748c0 1.191.704 2.269 1.795 2.747l47.138 20.684c.642.282 1.328.422 2.014.421v.002c.69 0 1.36-.14 2-.42l9.768-4.287 37.375-16.4c.563-.247 1.021-.656 1.334-1.157.292-.462.459-1.002.462-1.571.008 1.183.709 2.252 1.793 2.728l47.138 20.684c.642.282 1.328.422 2.014.421v.002c.69 0 1.36-.14 2-.42l9.768-4.287 37.374-16.4c.563-.247 1.021-.656 1.334-1.157.292-.462.459-1.002.462-1.571.008 1.183.709 2.252 1.793 2.728l47.138 20.684c.64.281 1.325.422 2.009.421v25.676c0 5.53 4.48 10 10 10h109.53c5.52 0 10-4.47 10-10v-153.48c0-5.529-4.48-9.999-10-9.999z" fill="url(#SVGID_2_)"/></g></g></svg>