<svg id="Capa_1" enable-background="new 0 0 512 512" height="512" viewBox="0 0 512 512" width="512" xmlns="http://www.w3.org/2000/svg" xmlns:xlink="http://www.w3.org/1999/xlink"><linearGradient id="SVGID_1_" gradientUnits="userSpaceOnUse" x1="111.416" x2="477.694" y1="468.778" y2="32.266"><stop offset="0" stop-color="#fff3ee" stop-opacity="0"/><stop offset=".2938" stop-color="#ffeade" stop-opacity=".373"/><stop offset=".7874" stop-color="#ffd6bb"/></linearGradient><linearGradient id="SVGID_2_" gradientUnits="userSpaceOnUse" x1="237.411" x2="237.411" y1="467.316" y2="29.101"><stop offset="0" stop-color="#ff4d4d" stop-opacity=".4"/><stop offset=".1463" stop-color="#ff4d4d" stop-opacity=".342"/><stop offset="1" stop-color="#ff4d4d" stop-opacity="0"/></linearGradient><g><g><g><path d="m484.982 48.101c-17.871-56.187-72.42.267-104.338-13.089-29.982-12.546-76.39-67.516-87.741-7.451-30.667 162.283-294.892 54.411-265.924 268.85 10.297 76.226 52.209 171.863 130.662 199.069 102.755 35.634 245.361 17.552 298.262-93.047 49.76-104.033-83.315-217.352 16.209-303.96 13.696-11.918 18.371-33.077 12.87-50.372z" fill="url(#SVGID_1_)"/></g><g><g><g><g><g><path d="m344.577 259.559-29.421-4.674c-2.205-7.148-5.067-14.006-8.509-20.51l17.508-24.121c3.748-5.164 3.186-12.286-1.326-16.798l-25.053-25.054c-4.512-4.512-11.634-5.074-16.798-1.326l-24.121 17.507c-6.505-3.442-13.362-6.305-20.51-8.509l-4.674-29.421c-1.001-6.302-6.435-10.94-12.816-10.94h-35.431c-6.381 0-11.815 4.639-12.816 10.94l-4.674 29.419c-7.148 2.205-14.007 5.067-20.512 8.51l-24.119-17.506c-5.164-3.748-12.286-3.186-16.798 1.326l-25.054 25.054c-4.512 4.512-5.074 11.634-1.326 16.798l17.508 24.122c-3.442 6.504-6.304 13.362-8.508 20.509l-29.422 4.674c-6.302 1.001-10.94 6.435-10.94 12.816v35.431c0 6.381 4.639 11.814 10.94 12.816l29.421 4.674c2.204 7.148 5.067 14.006 8.509 20.511l-17.507 24.12c-3.748 5.164-3.186 12.286 1.326 16.798l25.054 25.054c4.512 4.512 11.634 5.074 16.798 1.326l24.121-17.507c6.505 3.442 13.363 6.305 20.511 8.509l4.674 29.421c1.001 6.302 6.435 10.94 12.816 10.94h35.431c6.381 0 11.815-4.639 12.816-10.94l4.674-29.423c7.147-2.204 14.005-5.067 20.509-8.508l24.122 17.508c5.164 3.748 12.286 3.186 16.798-1.326l25.053-25.054c4.512-4.512 5.074-11.634 1.326-16.798l-17.507-24.12c3.443-6.505 6.305-13.363 8.51-20.512l29.42-4.674c6.302-1.001 10.94-6.435 10.94-12.816v-35.431c-.003-6.38-4.642-11.814-10.943-12.815zm-81.071 30.538c0 34.435-27.922 62.357-62.373 62.357-34.435 0-62.357-27.922-62.357-62.357 0-34.45 27.922-62.373 62.357-62.373 34.451.001 62.373 27.923 62.373 62.373z" fill="#9494ff"/><path d="m322.83 193.46-25.06-25.06c-4.51-4.51-11.63-5.07-16.79-1.32l-8.54 6.2c-.01.18-.02.35-.02.53v17.02c0 5.09 4.13 9.22 9.22 9.22h44.73c-.49-2.43-1.68-4.73-3.54-6.59z" fill="#8383ff"/><path d="m197.825 414.622-5.197-32.711c2.802.258 5.638.389 8.505.389 2.871 0 5.714-.132 8.518-.39l-5.197 32.712zm62.187-53.613c4.374-3.637 8.411-7.673 12.048-12.046l19.482 26.84-4.687 4.687zm-149.273 14.794 19.48-26.839c3.637 4.373 7.673 8.409 12.046 12.046l-26.839 19.48zm-34.13-82.398v-6.629l32.712-5.197c-.258 2.804-.39 5.647-.39 8.518 0 2.867.132 5.704.389 8.505zm216.353 5.196c.258-2.801.389-5.637.389-8.504 0-2.871-.132-5.713-.39-8.518l32.711 5.196v6.629zm-20.904-67.382c-3.638-4.374-7.673-8.409-12.047-12.047l26.842-19.483 4.687 4.687zm-161.319-26.841 4.688-4.688 26.84 19.481c-4.373 3.638-8.409 7.674-12.046 12.048zm98.912-6.109c-2.804-.259-5.647-.39-8.518-.39-2.867 0-5.703.131-8.504.389l5.196-32.709h6.629z" fill="#b3b3ff"/></g><path d="m312.774 160.145s-28.673 199.528-206.148 297.811c-4.504 2.494-2.705 9.36 2.444 9.36h237.447c2.065 0 3.913-1.265 4.661-3.189 6.969-17.932 39.679-112.31 39.679-303.981h-78.083z" fill="#ffc599"/><path d="m390.37 200.05h-25.86l.69 8.84c.26 3.22-2.29 5.97-5.52 5.97h-22.65c-3.23 0-5.78-2.75-5.52-5.97l.69-8.84h-28.69c7.04-24.44 9.26-39.9 9.26-39.9h78.09c0 13.8-.17 27.1-.49 39.9z" fill="#ffab66"/><path d="m344.575 259.556-29.42-4.673c-2.203-7.143-5.069-14.001-8.507-20.508l17.503-24.121c3.751-5.161 3.189-12.286-1.327-16.802l-13.936-13.936c-5.733 24.517-18.858 69.532-45.9 118.659-2.387 18.452-12.839 34.379-27.715 44.121-18.148 25.393-40.352 50.601-67.477 73.505l2.811 17.724c1.005 6.304 6.433 10.94 12.821 10.94h35.43c6.378 0 11.816-4.636 12.811-10.94l4.673-29.42c7.152-2.203 14.01-5.069 20.517-8.507l24.121 17.503c5.162 3.751 12.286 3.189 16.793-1.318l25.052-25.061c4.516-4.507 5.079-11.632 1.327-16.793l-17.503-24.121c3.438-6.507 6.304-13.365 8.507-20.517l29.42-4.673c6.304-.995 10.941-6.433 10.941-12.812v-35.43c-.001-6.378-4.637-11.816-10.942-12.82z" fill="#ffab66"/><g><g><g><g><g><path d="m357.678 217.736c-2.468 0-4.493 1.946-4.604 4.411-3.363 74.669-12.326 128.873-19.767 162.641-3.069 13.927-6.145 25.641-8.902 35.127-.722 2.484.8 5.056 3.322 5.632l.112.026c2.394.547 4.77-.857 5.448-3.192 2.8-9.643 5.917-21.524 9.021-35.608 7.522-34.133 16.582-88.892 19.975-164.227.118-2.623-1.981-4.81-4.605-4.81z" fill="#ffe8dc"/></g></g><g><path d="m324.618 223.517c2.427.798 3.753 3.421 2.933 5.841-6.019 17.754-13.068 35.334-20.981 52.324-.781 1.678-2.444 2.664-4.18 2.664-.877 0-1.773-.251-2.585-.792-1.906-1.27-2.499-3.809-1.533-5.885 7.743-16.638 14.643-33.852 20.537-51.235.815-2.403 3.399-3.71 5.809-2.917z" fill="#ffe8dc"/></g><g><path d="m203.033 427.653c9.038-8.369 17.758-17.167 26.055-26.32 1.616-1.782 1.746-4.561.121-6.335-1.864-2.035-5.02-1.988-6.826.008-8.154 9.003-16.725 17.654-25.611 25.882-1.71 1.584-1.958 4.181-.585 6.064.018.025.036.05.055.075 1.609 2.207 4.787 2.482 6.791.626z" fill="#ffe8dc"/></g><g><path d="m254.131 416.622c-1.082 0-2.169-.379-3.045-1.151-1.91-1.683-2.094-4.595-.41-6.505 21.861-24.81 41.48-52.587 58.309-82.562 1.245-2.219 4.053-3.008 6.275-1.762 2.219 1.246 3.008 4.055 1.761 6.275-17.145 30.538-37.14 58.848-59.43 84.143-.912 1.035-2.183 1.562-3.46 1.562z" fill="#ffe8dc"/></g></g></g></g><g fill="#ffe8dc"><circle cx="291.541" cy="299.806" r="4.608"/><circle cx="263.506" cy="353.573" r="4.608"/><circle cx="252.555" cy="369.335" r="4.608"/><circle cx="322.398" cy="438.014" r="4.608"/><circle cx="321.985" cy="310.134" r="4.608"/></g></g><g><g><path d="m380.01 109.887v66.16h38.833c5.09 0 9.217-4.127 9.217-9.217v-17.023c0-2.935-1.398-5.695-3.765-7.432z" fill="#ffab66"/><path d="m320.474 109.887v66.16h-38.833c-5.09 0-9.217-4.127-9.217-9.217v-17.023c0-2.935 1.398-5.695 3.765-7.432z" fill="#ffab66"/><g fill="#ffd6bb"><path d="m380.01 160.408v15.64h38.833c5.09 0 9.217-4.127 9.217-9.217v-6.423z"/><path d="m272.424 160.408v6.423c0 5.09 4.127 9.217 9.217 9.217h38.833v-15.64z"/></g><path d="m384.94 100.11v75.94h-73.17v-75.94c0-18.12 4.31-32.83 10.11-44.15 0 0 0 0 .01-.01.49-.36 16.21-12.05 26.46-12.05 10.26 0 25.98 11.68 26.47 12.04v.01h.01c5.8 11.32 10.11 26.03 10.11 44.16z" fill="#ff6c6c"/><path d="m374.83 55.95c-6.66 7-16.06 11.35-26.48 11.35-10.41 0-19.81-4.35-26.47-11.34 6.37-12.44 14.54-20.79 20.79-25.09 3.43-2.36 7.94-2.36 11.37 0 6.25 4.3 14.42 12.65 20.79 25.08z" fill="#ffe8dc"/></g><g><path d="m359.678 190.865h-22.646c-3.232 0-5.778-2.754-5.525-5.976l2.954-37.595c.57-7.251 6.62-12.844 13.893-12.844 7.273 0 13.323 5.593 13.893 12.844l2.954 37.595c.255 3.221-2.291 5.976-5.523 5.976z" fill="#ffe8dc"/></g></g><circle cx="348.355" cy="101.053" fill="#b3b3ff" r="14.096"/></g><g><g><g><path d="m416.53 381.305h-18.583c-2.762 0-5-2.239-5-5s2.238-5 5-5h18.583c2.762 0 5 2.239 5 5s-2.238 5-5 5z" fill="#6c6cff"/></g><g><path d="m456.53 401.687h-58.583c-2.762 0-5-2.239-5-5s2.238-5 5-5h58.583c2.762 0 5 2.239 5 5s-2.238 5-5 5z" fill="#6c6cff"/></g><g><path d="m456.53 422.068h-58.583c-2.762 0-5-2.239-5-5s2.238-5 5-5h58.583c2.762 0 5 2.239 5 5s-2.238 5-5 5z" fill="#6c6cff"/></g></g></g></g><path d="m482.338 342.78c0-.62.14-1.21.41-1.76z" fill="#ffab66"/><g><g><path d="m432.864 228.491c-2.762 0-5-2.239-5-5 0-3.492-2.842-6.333-6.334-6.333-2.762 0-5-2.239-5-5s2.238-5 5-5c3.492 0 6.334-2.841 6.334-6.333 0-2.761 2.238-5 5-5s5 2.239 5 5c0 3.492 2.841 6.333 6.333 6.333 2.762 0 5 2.239 5 5s-2.238 5-5 5c-3.492 0-6.333 2.841-6.333 6.333 0 2.761-2.238 5-5 5z" fill="#ffab66"/></g><g><path d="m218.651 306.276c-2.762 0-5-2.239-5-5 0-3.492-2.841-6.333-6.333-6.333-2.762 0-5-2.239-5-5s2.238-5 5-5c3.492 0 6.333-2.841 6.333-6.333 0-2.761 2.238-5 5-5s5 2.239 5 5c0 3.492 2.841 6.333 6.333 6.333 2.762 0 5 2.239 5 5s-2.238 5-5 5c-3.492 0-6.333 2.841-6.333 6.333 0 2.762-2.238 5-5 5z" fill="#ffab66"/></g><g><path d="m270.23 85.267c-2.762 0-5-2.239-5-5 0-3.492-2.841-6.333-6.333-6.333-2.762 0-5-2.239-5-5s2.238-5 5-5c3.492 0 6.333-2.841 6.333-6.333 0-2.761 2.238-5 5-5s5 2.239 5 5c0 3.492 2.841 6.333 6.333 6.333 2.762 0 5 2.239 5 5s-2.238 5-5 5c-3.492 0-6.333 2.841-6.333 6.333 0 2.761-2.238 5-5 5z" fill="#ff6c6c"/></g><g><path d="m218.651 82.933c-1.279 0-2.56-.488-3.535-1.464l-5.465-5.464-5.465 5.464c-1.951 1.952-5.119 1.952-7.07 0-1.953-1.953-1.953-5.119 0-7.071l9-9c1.951-1.952 5.119-1.952 7.07 0l9 9c1.953 1.953 1.953 5.119 0 7.071-.975.976-2.255 1.464-3.535 1.464z" fill="#8383ff"/></g><g><path d="m406.947 471.402c-1.279 0-2.56-.488-3.535-1.464l-5.465-5.464-5.465 5.464c-1.951 1.952-5.119 1.952-7.07 0-1.953-1.953-1.953-5.119 0-7.071l9-9c1.951-1.952 5.119-1.952 7.07 0l9 9c1.953 1.953 1.953 5.119 0 7.071-.975.976-2.255 1.464-3.535 1.464z" fill="#8383ff"/></g></g></g></g><path d="m424.295 142.377-39.356-28.873v-13.398c0-38.008-18.954-61.026-30.906-69.239-3.426-2.354-7.932-2.354-11.358 0-11.952 8.213-30.905 31.231-30.905 69.239v16.167l-35.581 26.103c-2.367 1.736-3.765 4.496-3.765 7.431v17.023c0 1.955.613 3.764 1.651 5.255l-17.219 12.498c-6.504-3.442-13.362-6.305-20.51-8.509l-4.674-29.421c-1.001-6.302-6.435-10.94-12.816-10.94h-35.431c-6.381 0-11.815 4.639-12.816 10.94l-4.674 29.419c-7.148 2.205-14.007 5.068-20.512 8.51l-24.12-17.507c-5.164-3.748-12.286-3.186-16.798 1.326l-25.053 25.054c-4.512 4.512-5.074 11.634-1.326 16.798l17.508 24.121c-3.442 6.504-6.304 13.362-8.508 20.509l-29.422 4.674c-6.302 1.001-10.94 6.435-10.94 12.816v35.431c0 6.381 4.639 11.815 10.94 12.816l29.421 4.674c2.205 7.148 5.067 14.006 8.509 20.511l-17.507 24.12c-3.748 5.164-3.186 12.286 1.326 16.798l25.053 25.054c4.512 4.512 11.634 5.074 16.798 1.326l24.121-17.507c6.505 3.442 13.363 6.305 20.51 8.509l1.858 11.696c-18.113 15.292-38.417 29.555-61.167 42.154-4.504 2.494-2.706 9.36 2.443 9.36h237.447c2.063 0 3.911-1.26 4.658-3.182 6.766-17.414 37.858-107.07 39.599-288.086h28.069c5.09 0 9.217-4.126 9.217-9.217v-17.023c.001-2.934-1.398-5.694-3.764-7.43zm-161.334 155.848c-7.962 14.463-17.13 29.281-27.672 44.039-9.813 6.435-21.543 10.19-34.156 10.19-34.435 0-62.357-27.922-62.357-62.357 0-34.45 27.922-62.373 62.357-62.373 34.45 0 62.373 27.922 62.373 62.373 0 2.757-.198 5.466-.545 8.128zm42.459-122.177h4.258c-.248 1.108-.509 2.256-.792 3.466z" fill="url(#SVGID_2_)"/></g></svg>